<!-- icon666.com - MILLIONS vector ICONS FREE --><svg version="1.1" id="Capa_1" xmlns="http://www.w3.org/2000/svg" xmlns:xlink="http://www.w3.org/1999/xlink" x="0px" y="0px" viewBox="0 0 280 280" style="enable-background:new 0 0 280 280;" xml:space="preserve"><path d="M280,25c0-13.807-11.193-25-25-25H25C11.193,0,0,11.193,0,25v230c0,13.807,11.193,25,25,25h230c13.807,0,25-11.193,25-25V25 z M233.927,152.735l-73.87,52.385c-9.865,7.007-18.056,2.84-18.056-9.26v-35.459L78.99,205.12c-9.865,7.007-17.99,2.84-17.99-9.26 V84.14c0-12.1,8.125-16.268,17.99-9.261L142,119.591V84.14c0-12.1,8.192-16.268,18.057-9.261l73.809,52.377 C243.731,134.262,243.791,145.728,233.927,152.735z" fill="#000000" style="fill: rgb(50, 158, 179);"></path></svg>