<!-- icon666.com - MILLIONS vector ICONS FREE --><svg version="1.1" id="Capa_1" xmlns="http://www.w3.org/2000/svg" xmlns:xlink="http://www.w3.org/1999/xlink" x="0px" y="0px" viewBox="0 0 280 280" style="enable-background:new 0 0 280 280;" xml:space="preserve"><path d="M280,25c0-13.807-11.193-25-25-25H25C11.193,0,0,11.193,0,25v230c0,13.807,11.193,25,25,25h230c13.807,0,25-11.193,25-25V25 z M224,195.86c0,12.1-7.625,16.268-17.49,9.261L144,160.409v35.451c0,12.1-8.151,16.268-18.016,9.261l-73.788-52.377 c-9.865-7.006-9.885-18.472-0.021-25.479l73.819-52.386C135.86,67.873,144,72.04,144,84.14v35.459l62.51-44.719 c9.865-7.007,17.49-2.84,17.49,9.26V195.86z" fill="#000000" style="fill: rgb(80, 168, 185);"></path></svg>